# xmcd CD database file
#
# Track frame offsets:
#	150
#	15087
#	35601
#	50589
#	64191
#	75471
#	93347
#	104567
#	118955
#	137017
#	147083
#	163489
#	176245
#	187751
#	207108
#	218345
#
# Disc length: 3089 seconds
#
# Revision: 0
# Processed by: cddbd v1.5.1PL0 Copyright (c) Steve Scherf et al.
# Submitted via: CDex 1.51
#
DISCID=dc0c0f10
DTITLE=Barbara Fairchild - Rocky Top
DYEAR=1900
DGENRE=Country
TTITLE0=Rock Top
TTITLE1=Tip of my fingers
TTITLE2=So began the blues
TTITLE3=Every flower has to have a seed
TTITLE4=Colour my world
TTITLE5=And Robin danced
TTITLE6=Cheatin is
TTITLE7=Baby doll
TTITLE8=Love is a laughing child
TTITLE9=Kid Stuff
TTITLE10=Love is looking in someones
TTITLE11=There aint no way
TTITLE12=You cant put the city
TTITLE13=Too old for the dress
TTITLE14=Yall come
TTITLE15=Crazy love
EXTD=
EXTT0=
EXTT1=
EXTT2=
EXTT3=
EXTT4=
EXTT5=
EXTT6=
EXTT7=
EXTT8=
EXTT9=
EXTT10=
EXTT11=
EXTT12=
EXTT13=
EXTT14=
EXTT15=
PLAYORDER=
